Gait_lateral_06_analogdata.mot
version=1
nRows=59
nColumns=19
inDegrees=yes
endheader
time	1_ground_force_vx	1_ground_force_vy	1_ground_force_vz	1_ground_force_px	1_ground_force_py	1_ground_force_pz	1_ground_torque_x	1_ground_torque_y	1_ground_torque_z	2_ground_force_vx	2_ground_force_vy	2_ground_force_vz	2_ground_force_px	2_ground_force_py	2_ground_force_pz	2_ground_torque_x	2_ground_torque_y	2_ground_torque_z
0.240000	-6.474209	474.327698	-86.466554	-0.159015	0.000000	-0.471043	0.009569	-0.701047	0.127796	0.000000	0.000000	-0.000000	-0.200000	0.000000	0.302000	0.000000	0.000000	-0.000000
0.241000	-8.523183	478.876709	-85.493394	-0.159034	0.000000	-0.470671	0.005953	-0.334483	0.059715	0.000000	0.000000	-0.000000	-0.200000	0.000000	0.302000	0.000000	0.000000	-0.000000
0.242000	-9.770385	474.327698	-87.085840	-0.160385	0.000000	-0.472697	0.005215	-0.253195	0.046486	0.000000	0.000000	-0.000000	-0.200000	0.000000	0.302000	0.000000	0.000000	-0.000000
0.243000	-13.066559	477.477020	-86.378084	-0.159239	0.000000	-0.468940	0.015949	-0.582800	0.105431	0.000000	0.000000	-0.000000	-0.200000	0.000000	0.302000	0.000000	0.000000	-0.000000
0.244000	-13.333817	484.125549	-85.847269	-0.159023	0.000000	-0.467961	0.009134	-0.331624	0.058805	0.000000	0.000000	-0.000000	-0.200000	0.000000	0.302000	0.000000	0.000000	-0.000000
0.245000	-15.917305	484.475464	-87.174311	-0.158614	0.000000	-0.468564	0.025356	-0.771756	0.138866	0.000000	0.000000	-0.000000	-0.200000	0.000000	0.302000	0.000000	0.000000	-0.000000
0.246000	-18.589880	483.775635	-86.466556	-0.158165	0.000000	-0.468500	0.036522	-0.950430	0.169873	0.000000	0.000000	-0.000000	-0.200000	0.000000	0.302000	0.000000	0.000000	-0.000000
0.247000	-20.817024	485.875153	-86.731960	-0.157989	0.000000	-0.467966	0.034245	-0.799278	0.142676	0.000000	0.000000	-0.000000	-0.200000	0.000000	0.302000	0.000000	0.000000	-0.000000
0.248000	-22.598740	483.075775	-86.201145	-0.157948	0.000000	-0.469964	0.043888	-0.938154	0.167406	0.000000	0.000000	-0.000000	-0.200000	0.000000	0.302000	0.000000	0.000000	-0.000000
0.249000	-23.133255	483.425690	-85.404926	-0.156453	0.000000	-0.467964	0.033658	-0.703364	0.124261	0.000000	0.000000	-0.000000	-0.200000	0.000000	0.302000	0.000000	0.000000	-0.000000
0.250000	-24.024113	491.823853	-85.670330	-0.156907	0.000000	-0.466906	0.015369	-0.314629	0.054805	0.000000	0.000000	-0.000000	-0.200000	0.000000	0.302000	0.000000	0.000000	-0.000000
0.251000	-25.182228	486.225067	-86.731960	-0.156750	0.000000	-0.468910	0.021353	-0.412296	0.073545	0.000000	0.000000	-0.000000	-0.200000	0.000000	0.302000	0.000000	0.000000	-0.000000
0.252000	-27.231203	485.525238	-85.847271	-0.156685	0.000000	-0.468961	0.022969	-0.409538	0.072412	0.000000	0.000000	-0.000000	-0.200000	0.000000	0.302000	0.000000	0.000000	-0.000000
0.253000	-27.587546	489.374390	-86.289616	-0.156833	0.000000	-0.466895	0.016261	-0.288460	0.050863	0.000000	0.000000	-0.000000	-0.200000	0.000000	0.302000	0.000000	0.000000	-0.000000
0.254000	-28.656576	494.973145	-86.643490	-0.156566	0.000000	-0.465568	0.014075	-0.243104	0.042555	0.000000	0.000000	-0.000000	-0.200000	0.000000	0.302000	0.000000	0.000000	-0.000000
0.255000	-30.171034	493.923370	-86.643491	-0.156201	0.000000	-0.466535	0.031597	-0.517263	0.090738	0.000000	0.000000	-0.000000	-0.200000	0.000000	0.302000	0.000000	0.000000	-0.000000
0.256000	-30.883720	496.022919	-87.174313	-0.155134	0.000000	-0.466199	0.032231	-0.517665	0.090978	0.000000	0.000000	-0.000000	-0.200000	0.000000	0.302000	0.000000	0.000000	-0.000000
0.257000	-31.774578	494.973145	-87.085843	-0.153892	0.000000	-0.467742	0.039384	-0.613512	0.107942	0.000000	0.000000	-0.000000	-0.200000	0.000000	0.302000	0.000000	0.000000	-0.000000
0.258000	-32.309095	489.024445	-87.528188	-0.153996	0.000000	-0.471783	0.024977	-0.378051	0.067666	0.000000	0.000000	-0.000000	-0.200000	0.000000	0.302000	0.000000	0.000000	-0.000000
0.259000	-32.576349	485.525238	-86.378087	-0.153749	0.000000	-0.471060	0.013466	-0.200707	0.035707	0.000000	0.000000	-0.000000	-0.200000	0.000000	0.302000	0.000000	0.000000	-0.000000
0.260000	-32.041838	497.422607	-86.024213	-0.154536	0.000000	-0.466480	-0.018658	0.289643	-0.050091	0.000000	0.000000	-0.000000	-0.200000	0.000000	0.302000	0.000000	0.000000	-0.000000
0.261000	-32.220007	498.822296	-87.970533	-0.154103	0.000000	-0.466857	-0.027132	0.420053	-0.074079	0.000000	0.000000	-0.000000	-0.200000	0.000000	0.302000	0.000000	0.000000	-0.000000
0.262000	-33.645380	504.071136	-88.855222	-0.154471	0.000000	-0.465837	-0.021405	0.320693	-0.056530	0.000000	0.000000	-0.000000	-0.200000	0.000000	0.302000	0.000000	0.000000	-0.000000
0.263000	-34.803495	501.621674	-88.412878	-0.153822	0.000000	-0.466067	-0.005787	0.083406	-0.014701	0.000000	0.000000	-0.000000	-0.200000	0.000000	0.302000	0.000000	0.000000	-0.000000
0.264000	-34.714411	508.270203	-87.970533	-0.153771	0.000000	-0.465703	-0.007382	0.108077	-0.018706	0.000000	0.000000	-0.000000	-0.200000	0.000000	0.302000	0.000000	0.000000	-0.000000
0.265000	-35.070753	510.369720	-88.766759	-0.152302	0.000000	-0.465206	-0.009766	0.142121	-0.024719	0.000000	0.000000	-0.000000	-0.200000	0.000000	0.302000	0.000000	0.000000	-0.000000
0.266000	-36.050699	514.918701	-89.297575	-0.152933	0.000000	-0.465292	-0.025417	0.363039	-0.062958	0.000000	0.000000	-0.000000	-0.200000	0.000000	0.302000	0.000000	0.000000	-0.000000
0.267000	-37.208814	512.469238	-89.562979	-0.152612	0.000000	-0.466184	-0.031467	0.433391	-0.075743	0.000000	0.000000	-0.000000	-0.200000	0.000000	0.302000	0.000000	0.000000	-0.000000
0.268000	-37.565157	523.316895	-89.297575	-0.153253	0.000000	-0.463117	-0.045504	0.633918	-0.108170	0.000000	0.000000	-0.000000	-0.200000	0.000000	0.302000	0.000000	0.000000	-0.000000
0.269000	-38.634183	522.267090	-90.978491	-0.152664	0.000000	-0.463945	-0.031524	0.426147	-0.074235	0.000000	0.000000	-0.000000	-0.200000	0.000000	0.302000	0.000000	0.000000	-0.000000
0.270000	-41.039503	526.816101	-90.890021	-0.152147	0.000000	-0.462948	-0.022701	0.291412	-0.050276	0.000000	0.000000	-0.000000	-0.200000	0.000000	0.302000	0.000000	0.000000	-0.000000
0.271000	-41.930360	532.764771	-91.509307	-0.152255	0.000000	-0.463635	-0.026797	0.340476	-0.058481	0.000000	0.000000	-0.000000	-0.200000	0.000000	0.302000	0.000000	0.000000	-0.000000
0.272000	-42.464876	534.164490	-91.509307	-0.151727	0.000000	-0.462536	-0.036317	0.456828	-0.078260	0.000000	0.000000	-0.000000	-0.200000	0.000000	0.302000	0.000000	0.000000	-0.000000
0.273000	-43.355733	543.262451	-91.686240	-0.151854	0.000000	-0.461509	-0.039141	0.490452	-0.082773	0.000000	0.000000	-0.000000	-0.200000	0.000000	0.302000	0.000000	0.000000	-0.000000
0.274000	-43.088475	539.763245	-93.190223	-0.152477	0.000000	-0.463102	-0.058340	0.730818	-0.126176	0.000000	0.000000	-0.000000	-0.200000	0.000000	0.302000	0.000000	0.000000	-0.000000
0.275000	-44.424764	545.012085	-92.393996	-0.152674	0.000000	-0.459679	-0.058764	0.720930	-0.122217	0.000000	0.000000	-0.000000	-0.200000	0.000000	0.302000	0.000000	0.000000	-0.000000
0.276000	-43.266648	559.358887	-92.570937	-0.152555	0.000000	-0.457264	-0.080986	1.047007	-0.173274	0.000000	0.000000	-0.000000	-0.200000	0.000000	0.302000	0.000000	0.000000	-0.000000
0.277000	-44.424763	555.159790	-95.313483	-0.151834	0.000000	-0.460196	-0.038386	0.479699	-0.082358	0.000000	0.000000	-0.000000	-0.200000	0.000000	0.302000	0.000000	0.000000	-0.000000
0.278000	-45.315621	560.758606	-93.986442	-0.152081	0.000000	-0.459895	-0.032359	0.400431	-0.067115	0.000000	0.000000	-0.000000	-0.200000	0.000000	0.302000	0.000000	0.000000	-0.000000
0.279000	-45.315621	560.058716	-93.809501	-0.151349	0.000000	-0.460728	-0.019944	0.246491	-0.041287	0.000000	0.000000	-0.000000	-0.200000	0.000000	0.302000	0.000000	0.000000	-0.000000
0.280000	-46.384648	562.158264	-93.544097	-0.152269	0.000000	-0.460771	-0.014160	0.171618	-0.028558	0.000000	0.000000	-0.000000	-0.200000	0.000000	0.302000	0.000000	0.000000	-0.000000
0.281000	-45.671964	563.557983	-93.721038	-0.151105	0.000000	-0.460120	-0.010021	0.123655	-0.020564	0.000000	0.000000	-0.000000	-0.200000	0.000000	0.302000	0.000000	0.000000	-0.000000
0.282000	-45.493791	572.306030	-91.951652	-0.151388	0.000000	-0.459188	-0.051144	0.643380	-0.103371	0.000000	0.000000	-0.000000	-0.200000	0.000000	0.302000	0.000000	0.000000	-0.000000
0.283000	-45.404706	570.906311	-92.040122	-0.151517	0.000000	-0.460756	-0.035347	0.444442	-0.071652	0.000000	0.000000	-0.000000	-0.200000	0.000000	0.302000	0.000000	0.000000	-0.000000
0.284000	-43.622991	576.155151	-91.863181	-0.151551	0.000000	-0.459571	-0.058724	0.775602	-0.123663	0.000000	0.000000	-0.000000	-0.200000	0.000000	0.302000	0.000000	0.000000	-0.000000
0.285000	-46.473737	580.354248	-91.863182	-0.151805	0.000000	-0.458424	-0.016866	0.210618	-0.033338	0.000000	0.000000	-0.000000	-0.200000	0.000000	0.302000	0.000000	0.000000	-0.000000
0.286000	-46.651906	583.153625	-91.332366	-0.151844	0.000000	-0.458453	-0.018309	0.228866	-0.035845	0.000000	0.000000	-0.000000	-0.200000	0.000000	0.302000	0.000000	0.000000	-0.000000
0.287000	-46.295564	586.652832	-90.447677	-0.151359	0.000000	-0.458082	0.011607	-0.147084	0.022677	0.000000	0.000000	-0.000000	-0.200000	0.000000	0.302000	0.000000	0.000000	-0.000000
0.288000	-46.028306	593.301392	-91.155425	-0.150710	0.000000	-0.457576	0.041121	-0.530048	0.081437	0.000000	0.000000	-0.000000	-0.200000	0.000000	0.302000	0.000000	0.000000	-0.000000
0.289000	-46.740995	594.701050	-90.978492	-0.149831	0.000000	-0.459139	0.038337	-0.487778	0.074621	0.000000	0.000000	-0.000000	-0.200000	0.000000	0.302000	0.000000	0.000000	-0.000000
0.290000	-45.939222	593.651306	-89.474510	-0.151050	0.000000	-0.461300	0.024164	-0.312263	0.047064	0.000000	0.000000	-0.000000	-0.200000	0.000000	0.302000	0.000000	0.000000	-0.000000
0.291000	-44.424764	597.850342	-88.943694	-0.151294	0.000000	-0.458529	-0.006252	0.084136	-0.012517	0.000000	0.000000	-0.000000	-0.200000	0.000000	0.302000	0.000000	0.000000	-0.000000
0.292000	-42.821218	602.749268	-90.093795	-0.151313	0.000000	-0.457551	-0.009880	0.139074	-0.020788	0.000000	0.000000	-0.000000	-0.200000	0.000000	0.302000	0.000000	0.000000	-0.000000
0.293000	-43.712076	607.998108	-89.828391	-0.151420	0.000000	-0.457150	0.003924	-0.054578	0.008064	0.000000	0.000000	-0.000000	-0.200000	0.000000	0.302000	0.000000	0.000000	-0.000000
0.294000	-42.375791	612.547119	-89.474509	-0.151660	0.000000	-0.457435	-0.013882	0.200672	-0.029312	0.000000	0.000000	-0.000000	-0.200000	0.000000	0.302000	0.000000	0.000000	-0.000000
0.295000	-41.930360	611.147400	-90.182265	-0.151482	0.000000	-0.457321	0.001200	-0.017492	0.002581	0.000000	0.000000	-0.000000	-0.200000	0.000000	0.302000	0.000000	0.000000	-0.000000
0.296000	-40.594072	615.696411	-89.562979	-0.151319	0.000000	-0.457345	0.004810	-0.072955	0.010612	0.000000	0.000000	-0.000000	-0.200000	0.000000	0.302000	0.000000	0.000000	-0.000000
0.297000	-39.346872	620.595337	-90.801550	-0.151542	0.000000	-0.456887	-0.022997	0.362725	-0.053072	0.000000	0.000000	-0.000000	-0.200000	0.000000	0.302000	0.000000	0.000000	-0.000000
0.298000	-39.079614	623.044800	-91.155424	-0.152234	0.000000	-0.455962	-0.014130	0.225270	-0.032958	0.000000	0.000000	-0.000000	-0.200000	0.000000	0.302000	0.000000	0.000000	-0.000000
